<svg xmlns="http://www.w3.org/2000/svg" xmlns:xlink="http://www.w3.org/1999/xlink" aria-hidden="true" role="img" class="iconify iconify--logos" width="35.93" height="32" preserveAspectRatio="xMidYMid meet" viewBox="0 0 256 228"><path fill="#00D8FF" d="M210.483 73.824a171.49 171.49 0 0 0-8.24-2.597c.465-1.9.893-3.777 1.273-5.621c6.238-30.281 2.16-54.676-11.769-62.708c-13.355-7.7-35.196.329-57.254 20.526a171.23 171.23 0 0 0-5.352-1.593C117.741 7.932 100.221 0 81.897 0C36.732 0 0 36.733 0 81.897c0 43.492 33.397 79.03 75.763 81.479a170.9 170.9 0 0 0 3.532 5.88c-6.064 12.19-13.233 23.585-21.327 33.958a8.108 8.108 0 0 0 2.002 11.077a8.103 8.103 0 0 0 11.076-2.004c7.426-9.74 14.1-20.38 19.89-31.755a144.71 144.71 0 0 0 7.016 2.205c32.026 9.498 68.313 8.731 103.23-2.216c32.244-10.126 59.84-26.337 77.636-45.739c19.652-21.301 25.93-43.953 15.638-59.954zm-8.605 53.772c-15.76 17.528-40.398 32.202-69.424 41.343c-32.527 10.215-66.183 11.226-95.11 2.987c-1.13-.32-2.265-.635-3.395-.957c24.952-18.834 46.006-42.882 61.347-70.316c14.56-26.162 22.89-54.28 23.95-82.496c17.42 15.395 32.19 35.408 42.896 58.72c-1.124.36-2.238.73-3.344 1.11c-30.67 10.593-57.76 28.587-78.45 52.117c-19.378 22.137-31.51 47.76-34.882 74.77c-1.25-14.013-1.888-28.25-1.888-42.609c0-36.203 29.455-65.658 65.658-65.658c15.024 0 29.062 5.074 40.318 13.586c-1.914 27.897-9.836 55.612-23.865 81.265c-15.845 28.488-38.05 53.544-64.413 73.273a144.12 144.12 0 0 1-7.982-4.672a8.103 8.103 0 0 0-11.255 2.032a8.107 8.107 0 0 0 2.033 11.258a160.284 160.284 0 0 0 8.91 5.208c1.47-2.012 2.967-4.048 4.493-6.102c19.243 7.644 40.229 11.538 61.882 11.538c21.788 0 42.908-3.946 62.271-11.724c-19.394-25.18-35.36-53.825-46.737-84.573c27.916-8.782 52.686-23.145 72.4-41.782c18.292-17.363 31.338-37.476 38.004-58.923c7.824 12.086 10.04 31.298 3.912 55.483a170.17 170.17 0 0 1-4.755 18.05z"></path></svg>

